<?xml version="1.0" encoding="UTF-8" standalone="no"?>
<svg
   xmlns="http://www.w3.org/2000/svg"
   viewBox="0 0 4.2333332 4.2333332"
   height="16"
   width="16">
  <path
     style="fill:#28df86;fill-opacity:1"
     d="M 3.1321087,0.52916667 V 2.5362788 c 0,-0.3740837 -0.071224,-0.6688942 -0.2139405,-0.8841837 C 2.7764714,1.4352793 2.5824699,1.3270505 2.3357748,1.3270505 c -0.1942812,0 -0.3617082,0.093977 -0.5048787,0.271818 -0.140194,-0.1761534 -0.3025012,-0.269751 -0.4898928,-0.269751 -0.03466,0 -0.085682,0.00479 -0.1529623,0.013953 v 0.9436108 c 0.054028,-0.054967 0.1018651,-0.082682 0.1436605,-0.082682 0.059125,0 0.1090854,0.031989 0.1498617,0.096119 0.037567,0.057676 0.055955,0.1298289 0.058911,0.2134237 -7e-7,7.116e-4 0,0.00135 0,0.00206 0,0.00899 0.00144,0.016919 0.00155,0.025837 -0.00131,0.086526 -0.022114,0.1616084 -0.064596,0.2237578 -0.042815,0.062603 -0.09543,0.094051 -0.1576131,0.094051 -0.1457745,0 -0.2185914,-0.1519385 -0.2185914,-0.455786 V 0.53226727 H 0.52916665 V 2.4355097 c 0,0.3496536 0.061123,0.6343415 0.1834513,0.8542111 0.070339,0.126731 0.1596274,0.2274899 0.2676839,0.3023072 0.10907595,0.074817 0.22069025,0.1121385 0.33486335,0.1121385 0.1988525,0 0.368896,-0.092951 0.513147,-0.2682006 0.1426834,0.1752012 0.3127378,0.2682006 0.5146973,0.2682006 0.038737,0 0.081782,-0.00587 0.1286743,-0.018087 V 2.7993113 c -0.042815,0.0397 -0.089059,0.059945 -0.1390096,0.059945 -0.061164,0 -0.111655,-0.030908 -0.1514119,-0.091983 -0.038488,-0.059126 -0.057683,-0.1347004 -0.058911,-0.2253093 1.167e-4,-0.00907 0.00155,-0.017207 0.00155,-0.026354 0,-3.572e-4 2e-7,-6.774e-4 0,-0.00103 0.00307,-0.08154 0.023053,-0.1537824 0.063562,-0.2144576 0.043835,-0.065656 0.095402,-0.098184 0.1555461,-0.098184 0.066261,0 0.1188755,0.035723 0.1576131,0.1074866 0.039757,0.071764 0.059945,0.1677315 0.059945,0.2883544 V 3.6561056 H 3.132109 V 3.6555764 H 3.7041666 V 0.52916667 Z" />
  <path
     d="M 3.1321084,0.79374985 V 2.4663433 c 0,-0.3117362 -0.071225,-0.5574119 -0.2139404,-0.7368198 C 2.7764712,1.5488437 2.5824697,1.4586532 2.3357745,1.4586532 c -0.1942812,0 -0.3617081,0.078315 -0.5048786,0.2265148 C 1.6907019,1.5383735 1.528395,1.4603755 1.3410032,1.4603755 c -0.034661,0 -0.085682,0.00399 -0.1529622,0.011625 v 0.7863436 c 0.054029,-0.045804 0.1018644,-0.068903 0.1436605,-0.068903 0.059125,0 0.1090848,0.026657 0.1498617,0.080099 0.037566,0.048064 0.055955,0.1081912 0.058912,0.177853 -6e-7,5.93e-4 0,0.00113 0,0.00172 0,0.00749 0.00144,0.014099 0.00155,0.021531 -0.00131,0.072106 -0.022114,0.1346747 -0.064596,0.1864658 -0.042815,0.052169 -0.09543,0.078376 -0.1576133,0.078376 -0.1457743,0 -0.2185913,-0.1266153 -0.2185913,-0.3798218 V 0.79633385 H 0.52916657 V 2.3823693 c 0,0.291378 0.0611231,0.528618 0.18345133,0.7118425 0.0703386,0.1056086 0.15962742,0.1895747 0.26768382,0.2519225 0.10907518,0.062347 0.22069028,0.093449 0.33486328,0.093449 0.1988528,0 0.3688961,-0.077459 0.513147,-0.2235006 0.1426835,0.1460013 0.3127378,0.2235006 0.5146972,0.2235006 0.038737,0 0.081782,-0.00489 0.1286743,-0.015074 V 2.6855371 c -0.042815,0.033084 -0.089058,0.049954 -0.1390095,0.049954 -0.061164,0 -0.1116552,-0.025756 -0.151412,-0.076653 -0.038489,-0.049272 -0.057683,-0.11225 -0.058912,-0.1877578 1.167e-4,-0.00755 0.00155,-0.014339 0.00155,-0.021962 0,-2.973e-4 2e-7,-5.643e-4 0,-8.583e-4 0.00306,-0.067949 0.023053,-0.1281512 0.063562,-0.1787139 0.043835,-0.054714 0.095402,-0.08182 0.1555462,-0.08182 0.06626,0 0.1188756,0.029769 0.157613,0.089573 0.039757,0.059804 0.059946,0.1397765 0.059946,0.2402954 v 0.8819387 h 0.5715436 v -4.41e-4 H 3.7041664 V 0.79374985 Z" />
</svg>
